# xmcd
#
# Track frame offsets:
#	150
#	13822
#	30249
#	43771
#	58520
#	71729
#	85239
#	101892
#	114216
#	129190
#	145472
#	159094
#	166120
#	178961
#
# Disc length: 2570 seconds
# Revision: 3
# Processed by: cddbd v1.5.2PL0 Copyright (c) Steve Scherf et al.
# Submitted via: dBpowerAMP V12.0
#
DISCID=b30a080e
DTITLE=Kenny and Amanda Smith Band - Always Never Enough
DYEAR=2005
DGENRE=Bluegrass
TTITLE0=Always Never Enough
TTITLE1=Dig a Little Deep
TTITLE2=A Thousand Miles Ago
TTITLE3=Pacific Time
TTITLE4=Going Across the Sea
TTITLE5=Gulf Stream Dreamin'
TTITLE6=Just Any Day Now
TTITLE7=When Her Smile Is Gone
TTITLE8=Danbury Jail
TTITLE9=Going by Again
TTITLE10=Young Heart
TTITLE11=Why You Do What You Do
TTITLE12=She's on My Mind
TTITLE13=Our Last Goodbye
EXTD=
EXTT0=
EXTT1=
EXTT2=
EXTT3=
EXTT4=
EXTT5=
EXTT6=
EXTT7=
EXTT8=
EXTT9=
EXTT10=
EXTT11=
EXTT12=
EXTT13=
PLAYORDER=
